<svg width="48" height="50" viewBox="0 0 48 50" fill="none" xmlns="http://www.w3.org/2000/svg">
<g filter="url(#filter0_d)">
<rect width="48" height="48" rx="24" fill="white"/>
<path d="M32.7963 16.2739C32.7082 16.1558 32.6142 16.0425 32.5144 15.9344C32.6147 15.6644 32.6909 15.3858 32.7421 15.1021C32.8931 14.0642 32.762 13.0042 32.3627 12.0358C32.3627 12.0358 31.1487 11.6525 28.3631 13.547C27.1804 13.2171 25.9588 13.0513 24.732 13.0542C23.5016 13.0521 22.2765 13.2178 21.09 13.547C18.3044 11.6306 17.0904 12.0358 17.0904 12.0358C16.696 12.994 16.5649 14.042 16.711 15.0693C16.7625 15.3648 16.8423 15.6545 16.9495 15.9344C16.8519 16.0439 16.7544 16.1644 16.6677 16.2739C15.8588 17.2989 15.4295 18.5771 15.4537 19.8878C15.4511 20.1986 15.4656 20.5094 15.497 20.8186C15.8438 25.67 19.0414 26.7979 22.0872 27.1484C21.6561 27.5534 21.3638 28.0865 21.2526 28.6706C21.1519 29.0601 21.1044 29.4617 21.1117 29.8643V31.2984C19.8996 31.4072 18.655 31.229 18.2695 30.1361C17.855 29.0903 17.1679 28.1775 16.2811 27.4946C16.2166 27.459 16.1553 27.4178 16.0979 27.3716C16.02 27.1646 15.882 26.9864 15.7019 26.8602C15.5219 26.734 15.3083 26.6659 15.0891 26.6647H15.0839C14.7973 26.6646 14.5224 26.7792 14.3192 26.9834C14.1161 27.1877 14.0013 27.4649 14 27.7544C13.9958 28.6442 14.877 29.2185 15.2385 29.4142C15.66 29.8434 15.9992 30.3478 16.2388 30.9018C16.6336 32.0226 17.7879 33.7252 21.0793 33.5038C21.0804 33.5423 21.0815 33.5787 21.082 33.6118L21.0867 33.9049C21.0867 34.0487 21.1147 34.1911 21.1692 34.324C21.2236 34.4569 21.3035 34.5776 21.4041 34.6793C21.5048 34.781 21.6243 34.8617 21.7558 34.9167C21.8873 34.9717 22.0283 35 22.1706 35L22.174 34.9993V35H27.2804C27.4228 35 27.5638 34.9717 27.6953 34.9167C27.8268 34.8617 27.9463 34.781 28.047 34.6793C28.1476 34.5776 28.2275 34.4569 28.2819 34.324C28.3364 34.1911 28.3644 34.0487 28.3644 33.9049C28.3644 33.9049 28.3723 30.4447 28.3723 29.8643C28.3795 29.4618 28.3321 29.0602 28.2314 28.6706L28.2294 28.664L28.233 28.6706C28.2237 28.6323 28.2095 28.6011 28.1993 28.5639C28.0783 28.0214 27.7987 27.5282 27.3967 27.1484L27.4093 27.1712C27.4019 27.1645 27.3949 27.1549 27.3875 27.1484C30.4333 26.7979 33.6092 25.6481 33.956 20.8186C33.9875 20.5094 34.0019 20.1986 33.9994 19.8877C34.0186 18.5797 33.594 17.3043 32.7963 16.2739V16.2739Z" fill="#616670"/>
</g>
<defs>
<filter id="filter0_d" x="0" y="0" width="48" height="50" filterUnits="userSpaceOnUse" color-interpolation-filters="sRGB">
<feFlood flood-opacity="0" result="BackgroundImageFix"/>
<feColorMatrix in="SourceAlpha" type="matrix" values="0 0 0 0 0 0 0 0 0 0 0 0 0 0 0 0 0 0 127 0" result="hardAlpha"/>
<feMorphology radius="12" operator="erode" in="SourceAlpha" result="effect1_dropShadow"/>
<feOffset dy="4"/>
<feGaussianBlur stdDeviation="5"/>
<feColorMatrix type="matrix" values="0 0 0 0 0.556863 0 0 0 0 0.556863 0 0 0 0 0.556863 0 0 0 0.2 0"/>
<feBlend mode="normal" in2="BackgroundImageFix" result="effect1_dropShadow"/>
<feBlend mode="normal" in="SourceGraphic" in2="effect1_dropShadow" result="shape"/>
</filter>
</defs>
</svg>
