<svg width="48" height="50" viewBox="0 0 48 50" fill="none" xmlns="http://www.w3.org/2000/svg">
<g filter="url(#filter0_d)">
<rect width="48" height="48" rx="24" fill="white"/>
<path d="M18.7734 19.4989V32.9983H14.2625V19.4989H18.7734ZM19.0602 15.3313C19.061 15.3554 19.0619 15.3838 19.0619 15.4129C19.0619 16.037 18.796 16.5986 18.3712 16.9918L18.3696 16.9927C17.9139 17.4076 17.3043 17.6617 16.6346 17.6617C16.5936 17.6617 16.5518 17.6609 16.5109 17.6592H16.5167H16.4891C16.4548 17.6609 16.4147 17.6617 16.3746 17.6617C15.7191 17.6617 15.1237 17.4068 14.6814 16.9918L14.6823 16.9927C14.2609 16.5861 14 16.0178 14 15.3888C14 15.3688 14 15.3488 14.0008 15.3279V15.3313C14 15.3138 14 15.2938 14 15.2738C14 14.6389 14.2709 14.0673 14.7032 13.6666L14.7048 13.6657C15.1597 13.2533 15.7676 13 16.4339 13C16.4724 13 16.51 13.0008 16.5485 13.0025H16.5435C16.5794 13.0008 16.6204 13 16.663 13C17.3194 13 17.9172 13.2525 18.3637 13.6649L18.362 13.6632C18.7926 14.0773 19.0602 14.6572 19.0602 15.2996V15.3346V15.3329V15.3313ZM34.9983 25.263V32.9983H30.5017V25.7787C30.5059 25.7129 30.5075 25.6362 30.5075 25.5596C30.5075 24.813 30.2993 24.1156 29.9373 23.5207L29.9473 23.5382C29.5903 23.0417 29.0134 22.7225 28.362 22.7225C28.3119 22.7225 28.2617 22.7242 28.2115 22.7284H28.2182C28.1957 22.7275 28.1697 22.7267 28.1438 22.7267C27.6254 22.7267 27.1488 22.9042 26.7717 23.2016L26.7768 23.1983C26.398 23.5041 26.1012 23.8949 25.9139 24.3439L25.9072 24.3631C25.8102 24.6589 25.755 24.9988 25.755 25.3521C25.755 25.3921 25.7559 25.4321 25.7575 25.4721V25.4663V33H21.2609C21.2793 29.3767 21.2885 26.4389 21.2885 24.1865C21.2885 21.9341 21.284 20.5901 21.2751 20.1546L21.2617 19.5006H25.7584V21.4619H25.7308C25.9097 21.1745 26.0945 20.9253 26.2977 20.6921L26.291 20.6995C26.5259 20.4421 26.7784 20.2096 27.0502 20.0013L27.0635 19.9913C27.4013 19.7322 27.7977 19.5289 28.2274 19.4048L28.2525 19.3989C28.7023 19.2648 29.2199 19.1873 29.755 19.1873H29.8211H29.8177C29.8771 19.1848 29.9465 19.1831 30.0159 19.1831C31.4214 19.1831 32.6873 19.778 33.5744 20.7295L33.5769 20.7329C34.5256 21.7638 35 23.2736 35 25.2621L34.9983 25.263Z" fill="#616670"/>
</g>
<defs>
<filter id="filter0_d" x="0" y="0" width="48" height="50" filterUnits="userSpaceOnUse" color-interpolation-filters="sRGB">
<feFlood flood-opacity="0" result="BackgroundImageFix"/>
<feColorMatrix in="SourceAlpha" type="matrix" values="0 0 0 0 0 0 0 0 0 0 0 0 0 0 0 0 0 0 127 0" result="hardAlpha"/>
<feMorphology radius="12" operator="erode" in="SourceAlpha" result="effect1_dropShadow"/>
<feOffset dy="4"/>
<feGaussianBlur stdDeviation="5"/>
<feColorMatrix type="matrix" values="0 0 0 0 0.556863 0 0 0 0 0.556863 0 0 0 0 0.556863 0 0 0 0.2 0"/>
<feBlend mode="normal" in2="BackgroundImageFix" result="effect1_dropShadow"/>
<feBlend mode="normal" in="SourceGraphic" in2="effect1_dropShadow" result="shape"/>
</filter>
</defs>
</svg>
