<svg width="48" height="50" viewBox="0 0 48 50" fill="none" xmlns="http://www.w3.org/2000/svg">
<g filter="url(#filter0_d)">
<rect width="48" height="48" rx="24" fill="white"/>
<path fill-rule="evenodd" clip-rule="evenodd" d="M27.4713 26.653C26.5507 27.5736 25.302 28.0908 24.0001 28.0908C22.6981 28.0908 21.4495 27.5736 20.5289 26.653C19.6083 25.7324 19.0911 24.4838 19.0911 23.1818V16.6365C19.0911 15.3346 19.6083 14.0859 20.5289 13.1653C21.4495 12.2447 22.6981 11.7275 24.0001 11.7275C25.302 11.7275 26.5507 12.2447 27.4713 13.1653C28.3919 14.0859 28.9091 15.3346 28.9091 16.6365V23.1818C28.9091 24.4838 28.3919 25.7324 27.4713 26.653ZM31.6032 23.4215C31.7567 23.268 31.9648 23.1818 32.1818 23.1818C32.3987 23.1818 32.6068 23.268 32.7603 23.4215C32.9137 23.5749 32.9999 23.783 32.9999 24C33.0092 26.2517 32.1742 28.4251 30.6595 30.0912C29.1448 31.7573 27.0606 32.7952 24.8183 32.9998V35.4543C24.8183 35.6713 24.7321 35.8794 24.5786 36.0329C24.4252 36.1863 24.2171 36.2725 24.0001 36.2725C23.7831 36.2725 23.575 36.1863 23.4216 36.0329C23.2681 35.8794 23.1819 35.6713 23.1819 35.4543V32.9998C20.9395 32.7952 18.8553 31.7573 17.3407 30.0912C15.826 28.4251 14.9909 26.2517 15.0003 24C15.0003 23.783 15.0865 23.5749 15.2399 23.4215C15.3933 23.268 15.6014 23.1818 15.8184 23.1818C16.0354 23.1818 16.2435 23.268 16.397 23.4215C16.5504 23.5749 16.6366 23.783 16.6366 24C16.6366 25.9529 17.4124 27.8259 18.7933 29.2068C20.1742 30.5877 22.0472 31.3635 24.0001 31.3635C25.953 31.3635 27.8259 30.5877 29.2069 29.2068C30.5878 27.8259 31.3636 25.9529 31.3636 24C31.3636 23.783 31.4498 23.5749 31.6032 23.4215Z" fill="#616670"/>
</g>
<defs>
<filter id="filter0_d" x="0" y="0" width="48" height="50" filterUnits="userSpaceOnUse" color-interpolation-filters="sRGB">
<feFlood flood-opacity="0" result="BackgroundImageFix"/>
<feColorMatrix in="SourceAlpha" type="matrix" values="0 0 0 0 0 0 0 0 0 0 0 0 0 0 0 0 0 0 127 0" result="hardAlpha"/>
<feMorphology radius="12" operator="erode" in="SourceAlpha" result="effect1_dropShadow"/>
<feOffset dy="4"/>
<feGaussianBlur stdDeviation="5"/>
<feColorMatrix type="matrix" values="0 0 0 0 0.556863 0 0 0 0 0.556863 0 0 0 0 0.556863 0 0 0 0.2 0"/>
<feBlend mode="normal" in2="BackgroundImageFix" result="effect1_dropShadow"/>
<feBlend mode="normal" in="SourceGraphic" in2="effect1_dropShadow" result="shape"/>
</filter>
</defs>
</svg>
