<svg width="48" height="50" viewBox="0 0 48 50" fill="none" xmlns="http://www.w3.org/2000/svg">
<g filter="url(#filter0_d)">
<rect width="48" height="48" rx="24" fill="white"/>
<path d="M38 16.6068C37.0044 17.0479 35.9402 17.3458 34.8188 17.4833C35.9631 16.7958 36.8442 15.7073 37.2562 14.4125C36.1863 15.0484 35.0019 15.5125 33.7374 15.7589C32.7247 14.676 31.2829 14 29.6923 14C26.6313 14 24.1538 16.4865 24.1538 19.5516C24.1538 19.987 24.1996 20.4109 24.2969 20.8177C19.691 20.5885 15.6058 18.3771 12.8767 15.0141C12.4018 15.8333 12.1271 16.7901 12.1271 17.8042C12.1271 19.7292 13.1113 21.4307 14.5989 22.4276C13.6834 22.4047 12.8252 22.1526 12.0814 21.7344V21.8031C12.0814 24.4958 13.9924 26.7359 16.527 27.2458C16.0636 27.3719 15.5715 27.4406 15.068 27.4406C14.7133 27.4406 14.3643 27.4062 14.0267 27.3375C14.7305 29.5432 16.7788 31.1474 19.2047 31.1932C17.3109 32.6828 14.9193 33.5708 12.3217 33.5708C11.8754 33.5708 11.4348 33.5422 11 33.4906C13.4431 35.0833 16.3554 36 19.4793 36C29.6809 36 35.2537 27.538 35.2537 20.199C35.2537 19.9583 35.2479 19.7177 35.2365 19.4828C36.3179 18.6979 37.2562 17.724 38 16.6068Z" fill="#616670"/>
</g>
<defs>
<filter id="filter0_d" x="0" y="0" width="48" height="50" filterUnits="userSpaceOnUse" color-interpolation-filters="sRGB">
<feFlood flood-opacity="0" result="BackgroundImageFix"/>
<feColorMatrix in="SourceAlpha" type="matrix" values="0 0 0 0 0 0 0 0 0 0 0 0 0 0 0 0 0 0 127 0" result="hardAlpha"/>
<feMorphology radius="12" operator="erode" in="SourceAlpha" result="effect1_dropShadow"/>
<feOffset dy="4"/>
<feGaussianBlur stdDeviation="5"/>
<feColorMatrix type="matrix" values="0 0 0 0 0.556863 0 0 0 0 0.556863 0 0 0 0 0.556863 0 0 0 0.2 0"/>
<feBlend mode="normal" in2="BackgroundImageFix" result="effect1_dropShadow"/>
<feBlend mode="normal" in="SourceGraphic" in2="effect1_dropShadow" result="shape"/>
</filter>
</defs>
</svg>
