<svg xmlns="http://www.w3.org/2000/svg" width="15" height="23" viewBox="0 0 15 23" fill="none"><path d="M8.63901 22.6376L8.57318 22.6832C8.54685 22.6984 8.5224 22.717 8.49795 22.7322L8.41708 22.7761L8.34748 22.8133L8.26285 22.8505L8.18761 22.8809L8.10297 22.9079C8.07664 22.9164 8.05031 22.9265 8.0221 22.9333C7.99317 22.9418 7.96364 22.9486 7.9337 22.9535L7.85282 22.9721L7.74561 22.9873L7.68919 22.9924C7.57033 23.0025 7.45068 23.0025 7.33183 22.9924H7.25659L7.14938 22.9772L7.06851 22.9586C7.03857 22.9536 7.00903 22.9469 6.98011 22.9383C6.9519 22.9383 6.92557 22.9214 6.89923 22.913L6.81459 22.8859L6.73936 22.8555L6.65472 22.8184L6.58513 22.7812L6.50425 22.7373C6.4798 22.7221 6.45535 22.7035 6.42902 22.6883L6.3726 22.6376C6.32746 22.6038 6.2842 22.5683 6.24282 22.5311L0.528812 17.4166C0.361596 17.267 0.228831 17.0892 0.138097 16.8934C0.0473643 16.6977 0.000439709 16.4878 3.0755e-06 16.2758C-0.000433558 16.0637 0.0456262 15.8537 0.135553 15.6576C0.225479 15.4616 0.357511 15.2833 0.52411 15.1331C0.690708 14.9829 0.888611 14.8636 1.10652 14.7821C1.32443 14.7006 1.55807 14.6585 1.79412 14.6581C2.03016 14.6577 2.26398 14.6991 2.48222 14.7798C2.70046 14.8606 2.89885 14.9792 3.06607 15.1289L5.69925 17.4944V1.6119C5.69925 1.1844 5.8883 0.774405 6.2248 0.472115C6.5613 0.169825 7.01769 0 7.49358 0C7.96946 0 8.42586 0.169825 8.76236 0.472115C9.09886 0.774405 9.28791 1.1844 9.28791 1.6119V17.4944L11.9211 15.1289C12.2588 14.8248 12.7171 14.6538 13.1952 14.6533C13.6734 14.6528 14.1321 14.823 14.4706 15.1264C14.809 15.4297 14.9995 15.8415 15 16.271C15.0005 16.7005 14.8111 17.1126 14.4734 17.4166L8.76879 22.5311C8.72741 22.5683 8.68415 22.6038 8.63901 22.6376Z" fill="#37C3B9"></path></svg>