<svg width="97" height="32" viewBox="0 0 97 32" fill="none" xmlns="http://www.w3.org/2000/svg">
<rect width="97" height="32" fill="#C4C4C4"/>
<path d="M25.4972 23V10.6364H26.9943V21.6719H32.7415V23H25.4972ZM45.01 16.8182C45.01 18.1222 44.7746 19.2491 44.3037 20.1989C43.8328 21.1487 43.1869 21.8812 42.3659 22.3963C41.5448 22.9115 40.6071 23.169 39.5526 23.169C38.4982 23.169 37.5605 22.9115 36.7394 22.3963C35.9184 21.8812 35.2725 21.1487 34.8016 20.1989C34.3307 19.2491 34.0953 18.1222 34.0953 16.8182C34.0953 15.5142 34.3307 14.3873 34.8016 13.4375C35.2725 12.4877 35.9184 11.7552 36.7394 11.2401C37.5605 10.7249 38.4982 10.4673 39.5526 10.4673C40.6071 10.4673 41.5448 10.7249 42.3659 11.2401C43.1869 11.7552 43.8328 12.4877 44.3037 13.4375C44.7746 14.3873 45.01 15.5142 45.01 16.8182ZM43.5612 16.8182C43.5612 15.7476 43.3821 14.8441 43.0239 14.1076C42.6697 13.3711 42.1888 12.8137 41.5811 12.4354C40.9774 12.0571 40.3012 11.8679 39.5526 11.8679C38.8041 11.8679 38.1259 12.0571 37.5182 12.4354C36.9145 12.8137 36.4336 13.3711 36.0754 14.1076C35.7212 14.8441 35.5441 15.7476 35.5441 16.8182C35.5441 17.8887 35.7212 18.7923 36.0754 19.5288C36.4336 20.2653 36.9145 20.8227 37.5182 21.201C38.1259 21.5793 38.8041 21.7685 39.5526 21.7685C40.3012 21.7685 40.9774 21.5793 41.5811 21.201C42.1888 20.8227 42.6697 20.2653 43.0239 19.5288C43.3821 18.7923 43.5612 17.8887 43.5612 16.8182ZM55.9791 14.5C55.8463 14.0935 55.6713 13.7293 55.4539 13.4073C55.2406 13.0813 54.9851 12.8036 54.6872 12.5742C54.3934 12.3448 54.0594 12.1697 53.6851 12.049C53.3108 11.9283 52.9003 11.8679 52.4536 11.8679C51.7211 11.8679 51.055 12.0571 50.4553 12.4354C49.8557 12.8137 49.3788 13.3711 49.0246 14.1076C48.6704 14.8441 48.4933 15.7476 48.4933 16.8182C48.4933 17.8887 48.6724 18.7923 49.0306 19.5288C49.3888 20.2653 49.8738 20.8227 50.4855 21.201C51.0973 21.5793 51.7855 21.7685 52.5502 21.7685C53.2585 21.7685 53.8823 21.6175 54.4216 21.3157C54.9649 21.0098 55.3875 20.5792 55.6894 20.0238C55.9952 19.4644 56.1482 18.8063 56.1482 18.0497L56.607 18.1463H52.8882V16.8182H57.597V18.1463C57.597 19.1645 57.3797 20.05 56.945 20.8026C56.5144 21.5552 55.9188 22.1387 55.1581 22.5533C54.4015 22.9638 53.5322 23.169 52.5502 23.169C51.4555 23.169 50.4936 22.9115 49.6645 22.3963C48.8395 21.8812 48.1955 21.1487 47.7327 20.1989C47.2739 19.2491 47.0445 18.1222 47.0445 16.8182C47.0445 15.8402 47.1753 14.9608 47.4369 14.18C47.7025 13.3952 48.0768 12.7272 48.5597 12.1758C49.0427 11.6244 49.6142 11.2018 50.2742 10.908C50.9343 10.6142 51.6607 10.4673 52.4536 10.4673C53.1056 10.4673 53.7133 10.5659 54.2767 10.7631C54.8442 10.9563 55.3493 11.232 55.792 11.5902C56.2387 11.9444 56.611 12.369 56.9088 12.864C57.2066 13.355 57.4119 13.9003 57.5246 14.5H55.9791ZM70.593 16.8182C70.593 18.1222 70.3576 19.2491 69.8867 20.1989C69.4158 21.1487 68.7699 21.8812 67.9489 22.3963C67.1278 22.9115 66.1901 23.169 65.1357 23.169C64.0812 23.169 63.1435 22.9115 62.3224 22.3963C61.5014 21.8812 60.8555 21.1487 60.3846 20.1989C59.9137 19.2491 59.6783 18.1222 59.6783 16.8182C59.6783 15.5142 59.9137 14.3873 60.3846 13.4375C60.8555 12.4877 61.5014 11.7552 62.3224 11.2401C63.1435 10.7249 64.0812 10.4673 65.1357 10.4673C66.1901 10.4673 67.1278 10.7249 67.9489 11.2401C68.7699 11.7552 69.4158 12.4877 69.8867 13.4375C70.3576 14.3873 70.593 15.5142 70.593 16.8182ZM69.1442 16.8182C69.1442 15.7476 68.9651 14.8441 68.6069 14.1076C68.2527 13.3711 67.7718 12.8137 67.1641 12.4354C66.5604 12.0571 65.8842 11.8679 65.1357 11.8679C64.3871 11.8679 63.7089 12.0571 63.1012 12.4354C62.4975 12.8137 62.0166 13.3711 61.6584 14.1076C61.3042 14.8441 61.1271 15.7476 61.1271 16.8182C61.1271 17.8887 61.3042 18.7923 61.6584 19.5288C62.0166 20.2653 62.4975 20.8227 63.1012 21.201C63.7089 21.5793 64.3871 21.7685 65.1357 21.7685C65.8842 21.7685 66.5604 21.5793 67.1641 21.201C67.7718 20.8227 68.2527 20.2653 68.6069 19.5288C68.9651 18.7923 69.1442 17.8887 69.1442 16.8182Z" fill="black"/>
</svg>
