<svg width="318" height="58" viewBox="0 0 318 58" fill="none" xmlns="http://www.w3.org/2000/svg">
<rect width="318" height="58" rx="10" fill="#35C4BA"/>
<path d="M27.8906 19.4043C28.5352 19.4824 29.1211 19.541 29.6484 19.5801C30.1562 19.6191 30.5957 19.6582 30.9668 19.6973C31.3965 19.7363 31.7773 19.7656 32.1094 19.7852C32.4609 19.7852 32.9102 19.7754 33.457 19.7559C33.9258 19.7363 34.5215 19.707 35.2441 19.668C35.9668 19.6289 36.8555 19.5605 37.9102 19.4629C37.4023 19.7559 36.9824 20.0488 36.6504 20.3418C36.3379 20.6348 36.0938 20.8984 35.918 21.1328C35.7031 21.4062 35.5469 21.6797 35.4492 21.9531C35.3906 22.3242 35.4102 23.0469 35.5078 24.1211C35.5469 24.5703 35.6055 25.127 35.6836 25.791C35.7812 26.4355 35.8984 27.207 36.0352 28.1055C36.1914 28.9844 36.377 30 36.5918 31.1523C36.8262 32.3047 37.0898 33.6133 37.3828 35.0781C37.7734 33.9648 38.0957 32.9785 38.3496 32.1191C38.6035 31.2402 38.8184 30.4883 38.9941 29.8633C39.1895 29.1602 39.3555 28.5352 39.4922 27.9883C39.6289 27.4219 39.7949 26.6895 39.9902 25.791C40.1465 25.0293 40.3516 24.043 40.6055 22.832C40.8594 21.6211 41.1719 20.127 41.543 18.3496L42.5977 18.4961C42.6953 19.8828 42.793 21.1035 42.8906 22.1582C43.0078 23.2129 43.1055 24.1113 43.1836 24.8535C43.2617 25.7129 43.3398 26.4551 43.418 27.0801C43.4961 27.6465 43.6133 28.3008 43.7695 29.043C43.9062 29.668 44.082 30.4395 44.2969 31.3574C44.5117 32.2559 44.7949 33.2715 45.1465 34.4043C45.498 33.0176 45.8105 31.7773 46.084 30.6836C46.377 29.5898 46.6211 28.623 46.8164 27.7832C47.0312 26.9434 47.207 26.2207 47.3438 25.6152C47.5 25.0098 47.627 24.502 47.7246 24.0918C47.9395 23.1152 48.0664 22.4609 48.1055 22.1289C48.0859 21.7578 47.998 21.3965 47.8418 21.0449C47.7051 20.7324 47.4902 20.3906 47.1973 20.0195C46.9043 19.6484 46.4746 19.2871 45.9082 18.9355C47.0996 18.9746 48.0664 19.0039 48.8086 19.0234C49.5703 19.0234 50.1758 19.0234 50.625 19.0234H51.7969H52.8516C53.2422 19.0234 53.75 19.0234 54.375 19.0234C55.0195 19.0039 55.8398 18.9746 56.8359 18.9355C55.9766 19.3848 55.2832 19.7949 54.7559 20.166C54.2285 20.5371 53.8184 20.8496 53.5254 21.1035C53.1738 21.416 52.9199 21.6797 52.7637 21.8945C52.6074 22.2852 52.3535 23.1641 52.002 24.5312C51.8457 25.1172 51.6699 25.8496 51.4746 26.7285C51.2793 27.5879 51.0449 28.623 50.7715 29.834C50.5176 31.0449 50.2246 32.4609 49.8926 34.082C49.5605 35.6836 49.1895 37.5195 48.7793 39.5898L43.7109 39.0625L41.543 29.9512C41.2109 31.6113 40.9473 32.959 40.752 33.9941C40.5566 35.0098 40.4102 35.8008 40.3125 36.3672C40.1953 37.0508 40.127 37.5488 40.1074 37.8613C40.0879 38.1348 40.0684 38.3984 40.0488 38.6523C40.0293 38.8672 40 39.1016 39.9609 39.3555C39.9414 39.6094 39.9121 39.8438 39.873 40.0586H34.6875C34.1797 37.832 33.7207 35.8691 33.3105 34.1699C32.9199 32.4512 32.5684 30.9473 32.2559 29.6582C31.9434 28.3691 31.6699 27.2754 31.4355 26.377C31.2207 25.4785 31.0254 24.7266 30.8496 24.1211C30.459 22.7148 30.1758 21.8457 30 21.5137C29.8633 21.3574 29.6875 21.1719 29.4727 20.957C29.2969 20.7812 29.082 20.5664 28.8281 20.3125C28.5547 20.0391 28.2422 19.7363 27.8906 19.4043ZM64.2188 17.9102C65.2734 17.9492 66.3379 18.1445 67.4121 18.4961C68.5059 18.8281 69.5117 19.375 70.4297 20.1367C71.3477 20.8789 72.1289 21.8457 72.7734 23.0371C73.418 24.209 73.8184 25.6445 73.9746 27.3438C74.1113 28.7305 73.9355 30.1074 73.4473 31.4746C72.9785 32.8223 72.3242 34.0625 71.4844 35.1953C70.6445 36.3281 69.6777 37.2949 68.584 38.0957C67.4902 38.877 66.3965 39.3945 65.3027 39.6484C64.6387 39.8047 63.9062 39.8242 63.1055 39.707C62.3242 39.5703 61.5234 39.3262 60.7031 38.9746C59.9023 38.6035 59.1113 38.1348 58.3301 37.5684C57.5684 37.002 56.875 36.3574 56.25 35.6348C55.625 34.8926 55.0977 34.0918 54.668 33.2324C54.2578 32.373 54.0039 31.4746 53.9062 30.5371C53.8086 29.7559 53.7988 28.8965 53.877 27.959C53.9746 27.002 54.1602 26.0547 54.4336 25.1172C54.7266 24.1602 55.127 23.2422 55.6348 22.3633C56.1621 21.4648 56.8262 20.6836 57.627 20.0195C58.4277 19.3359 59.3652 18.8086 60.4395 18.4375C61.5332 18.0469 62.793 17.8711 64.2188 17.9102ZM58.9746 29.7754C58.7012 31.8652 58.8965 33.5449 59.5605 34.8145C60.2441 36.084 61.2695 36.8555 62.6367 37.1289C63.3008 37.2656 63.9355 37.1289 64.541 36.7188C65.166 36.2891 65.7324 35.6738 66.2402 34.873C66.748 34.0723 67.1875 33.1348 67.5586 32.0605C67.9297 30.9863 68.2031 29.8633 68.3789 28.6914C68.5547 27.5195 68.5645 26.4648 68.4082 25.5273C68.2715 24.5703 68.0273 23.7598 67.6758 23.0957C67.3242 22.4121 66.8945 21.8848 66.3867 21.5137C65.8984 21.1426 65.3906 20.9375 64.8633 20.8984C63.9453 20.8398 63.1445 21.084 62.4609 21.6309C61.7773 22.1582 61.2012 22.8516 60.7324 23.7109C60.2637 24.5703 59.8828 25.5371 59.5898 26.6113C59.3164 27.6855 59.1113 28.7402 58.9746 29.7754ZM73.5645 18.6133C74.1895 18.7109 74.7559 18.7988 75.2637 18.877C75.7715 18.9355 76.2109 18.9844 76.582 19.0234C77.0117 19.082 77.3926 19.1309 77.7246 19.1699C78.1348 19.2285 78.75 19.1602 79.5703 18.9648C80.3906 18.75 81.2891 18.5547 82.2656 18.3789C83.2617 18.1836 84.2773 18.0762 85.3125 18.0566C86.3477 18.0176 87.2949 18.2031 88.1543 18.6133C89.0137 19.0234 89.7168 19.4336 90.2637 19.8438C90.8105 20.2539 91.2402 20.6934 91.5527 21.1621C91.8848 21.6113 92.1191 22.0898 92.2559 22.5977C92.3926 23.1055 92.4707 23.6621 92.4902 24.2676C92.4707 25.166 92.2559 26.0352 91.8457 26.875C91.6699 27.2266 91.4355 27.5977 91.1426 27.9883C90.8691 28.3594 90.5273 28.7207 90.1172 29.0723C89.707 29.4238 89.2188 29.7559 88.6523 30.0684C88.1055 30.3809 87.4609 30.6543 86.7188 30.8887C87.4414 31.1035 88.0371 31.3574 88.5059 31.6504C88.9941 31.9434 89.3848 32.2168 89.6777 32.4707C90.0293 32.7832 90.293 33.0859 90.4688 33.3789C90.6836 33.7891 90.8301 34.1406 90.9082 34.4336C90.9863 34.7266 91.0352 35.0098 91.0547 35.2832C91.0938 35.5371 91.1426 35.8008 91.2012 36.0742C91.2598 36.3477 91.3867 36.6602 91.582 37.0117C91.7383 37.2852 91.9238 37.5684 92.1387 37.8613C92.334 38.1152 92.5586 38.3887 92.8125 38.6816C93.0859 38.9746 93.418 39.2578 93.8086 39.5312C93.2617 39.5508 92.7539 39.5605 92.2852 39.5605C91.8359 39.5605 91.4453 39.5605 91.1133 39.5605C90.7227 39.5605 90.3516 39.5508 90 39.5312C89.6484 39.5117 89.209 39.502 88.6816 39.502C88.2324 39.502 87.6562 39.502 86.9531 39.502C86.2695 39.502 85.4395 39.5117 84.4629 39.5312C84.8926 39.1992 85.2441 38.8672 85.5176 38.5352C85.791 38.2031 86.0059 37.9004 86.1621 37.627C86.3379 37.3145 86.4648 37.0117 86.543 36.7188C86.6406 36.1914 86.6504 35.6445 86.5723 35.0781C86.5137 34.5898 86.3574 34.0527 86.1035 33.4668C85.8496 32.8613 85.4395 32.2559 84.873 31.6504C84.3066 31.748 83.8281 31.8262 83.4375 31.8848C83.0664 31.9238 82.7441 31.9629 82.4707 32.002C82.1582 32.041 81.9043 32.0703 81.709 32.0898C81.5332 32.1094 81.3379 32.1289 81.123 32.1484C80.9473 32.168 80.752 32.1973 80.5371 32.2363C80.3418 32.2559 80.1562 32.2852 79.9805 32.3242C79.9414 33.1641 79.9414 33.8965 79.9805 34.5215C80.0195 35.127 80.0684 35.6348 80.127 36.0449C80.2051 36.5332 80.293 36.9531 80.3906 37.3047C80.4883 37.6562 80.625 37.998 80.8008 38.3301C80.9375 38.6035 81.1133 38.8965 81.3281 39.209C81.543 39.502 81.7871 39.7461 82.0605 39.9414C81.5527 39.9414 81.0645 39.9414 80.5957 39.9414C80.1465 39.9414 79.7363 39.9316 79.3652 39.9121C78.9355 39.9121 78.5254 39.9023 78.1348 39.8828C77.7441 39.8633 77.3047 39.8535 76.8164 39.8535C76.4062 39.8535 75.918 39.8535 75.3516 39.8535C74.8047 39.8535 74.209 39.8633 73.5645 39.8828C74.0723 39.3555 74.4727 38.9062 74.7656 38.5352C75.0586 38.1641 75.2832 37.8516 75.4395 37.5977C75.6152 37.3242 75.7227 37.0898 75.7617 36.8945C75.8008 36.582 75.8301 36.0254 75.8496 35.2246C75.8887 34.4043 75.918 33.4668 75.9375 32.4121C75.957 31.3574 75.9668 30.2539 75.9668 29.1016C75.9668 27.9492 75.957 26.875 75.9375 25.8789C75.918 24.8633 75.8984 23.9941 75.8789 23.2715C75.8594 22.5488 75.8398 22.0898 75.8203 21.8945C75.7617 21.543 75.6348 21.1914 75.4395 20.8398C75.2832 20.5273 75.0586 20.1758 74.7656 19.7852C74.4727 19.3945 74.0723 19.0039 73.5645 18.6133ZM84.6387 28.9258C84.834 28.8086 85 28.6914 85.1367 28.5742C85.2734 28.457 85.3906 28.2715 85.4883 28.0176C85.5859 27.7441 85.6641 27.3633 85.7227 26.875C85.8008 26.3867 85.8887 25.7227 85.9863 24.8828C86.0645 24.043 86.0059 23.3496 85.8105 22.8027C85.6348 22.2559 85.3906 21.8262 85.0781 21.5137C84.7852 21.1816 84.4531 20.957 84.082 20.8398C83.7305 20.7031 83.418 20.6348 83.1445 20.6348C82.5977 20.6348 82.0605 20.8008 81.5332 21.1328C81.0059 21.4648 80.6055 21.9141 80.332 22.4805C80.2344 22.7344 80.1465 23.1543 80.0684 23.7402C80.0098 24.248 79.9707 24.9512 79.9512 25.8496C79.9316 26.748 79.9609 27.9297 80.0391 29.3945C80.7812 29.5117 81.4355 29.5605 82.002 29.541C82.5684 29.502 83.0469 29.4336 83.4375 29.3359C83.9062 29.2383 84.3066 29.1016 84.6387 28.9258ZM93.8086 18.7598C94.375 18.8574 94.873 18.9258 95.3027 18.9648C95.752 19.0039 96.123 19.0332 96.416 19.0527C96.7676 19.0723 97.0703 19.082 97.3242 19.082C97.5781 19.082 97.9395 19.0625 98.4082 19.0234C98.7988 18.9844 99.3066 18.9355 99.9316 18.877C100.576 18.8184 101.367 18.7207 102.305 18.584C102.031 18.6621 101.777 18.8867 101.543 19.2578C101.328 19.6094 101.133 19.9902 100.957 20.4004C100.742 20.8887 100.557 21.4258 100.4 22.0117C100.264 22.5391 100.088 23.2617 99.873 24.1797C99.6777 25.0977 99.4824 26.0938 99.2871 27.168C99.1113 28.2422 98.9746 29.3359 98.877 30.4492C98.7793 31.543 98.7598 32.5488 98.8184 33.4668C98.8965 34.3848 99.082 35.1465 99.375 35.752C99.668 36.3379 100.117 36.6504 100.723 36.6895C101.641 36.7676 102.402 36.7773 103.008 36.7188C103.633 36.6406 104.141 36.5332 104.531 36.3965C104.922 36.2598 105.225 36.1035 105.439 35.9277C105.654 35.7324 105.82 35.5469 105.938 35.3711C106.25 34.9219 106.572 34.3457 106.904 33.6426C107.236 32.9395 107.529 32.2656 107.783 31.6211C108.057 30.9766 108.281 30.4297 108.457 29.9805C108.633 29.5312 108.721 29.3164 108.721 29.3359C108.721 29.375 108.711 29.5996 108.691 30.0098C108.691 30.4004 108.682 30.8789 108.662 31.4453C108.662 31.9922 108.652 32.5684 108.633 33.1738C108.633 33.7793 108.623 34.2969 108.604 34.7266C108.584 35.0781 108.564 35.4688 108.545 35.8984C108.525 36.2695 108.506 36.709 108.486 37.2168C108.486 37.7246 108.467 38.2812 108.428 38.8867C107.607 38.8281 106.826 38.7891 106.084 38.7695C105.342 38.75 104.688 38.7402 104.121 38.7402C103.457 38.7402 102.842 38.75 102.275 38.7695C101.67 38.7891 100.967 38.8184 100.166 38.8574C99.4824 38.8965 98.6328 38.9453 97.6172 39.0039C96.6016 39.043 95.4297 39.1016 94.1016 39.1797C94.2578 38.9062 94.3848 38.6523 94.4824 38.418C94.5996 38.1836 94.6875 37.9883 94.7461 37.832C94.8242 37.6367 94.873 37.4707 94.8926 37.334C95.0098 36.709 95.1074 35.918 95.1855 34.9609C95.2637 33.9844 95.3223 32.9492 95.3613 31.8555C95.4199 30.7617 95.4492 29.6484 95.4492 28.5156C95.4688 27.3633 95.4688 26.2988 95.4492 25.3223C95.4297 24.3457 95.3906 23.4961 95.332 22.7734C95.293 22.0508 95.2344 21.5527 95.1562 21.2793C95.0586 20.9668 94.9414 20.6543 94.8047 20.3418C94.6875 20.0684 94.541 19.7949 94.3652 19.5215C94.209 19.2285 94.0234 18.9746 93.8086 18.7598ZM109.307 19.1113C109.99 19.209 110.586 19.2871 111.094 19.3457C111.602 19.4043 112.021 19.4531 112.354 19.4922C112.744 19.5312 113.076 19.5605 113.35 19.5801C113.662 19.6191 114.043 19.5996 114.492 19.5215C114.961 19.4434 115.459 19.3652 115.986 19.2871C116.514 19.1895 117.061 19.1113 117.627 19.0527C118.193 18.9941 118.74 18.9941 119.268 19.0527C119.619 19.0918 120.068 19.1699 120.615 19.2871C121.162 19.4043 121.738 19.5898 122.344 19.8438C122.969 20.0977 123.594 20.4297 124.219 20.8398C124.844 21.25 125.41 21.7676 125.918 22.3926C126.426 23.0176 126.846 23.7598 127.178 24.6191C127.51 25.4785 127.695 26.4844 127.734 27.6367C127.793 29.3555 127.637 30.918 127.266 32.3242C126.895 33.7305 126.318 34.9316 125.537 35.9277C124.775 36.9238 123.809 37.7051 122.637 38.2715C121.465 38.8379 120.098 39.1504 118.535 39.209C117.344 39.3066 116.172 39.3945 115.02 39.4727C114.531 39.5117 114.014 39.541 113.467 39.5605C112.939 39.5801 112.412 39.5996 111.885 39.6191C111.357 39.6191 110.85 39.6094 110.361 39.5898C109.873 39.5703 109.424 39.541 109.014 39.502C109.463 39.2871 109.824 39.0723 110.098 38.8574C110.391 38.6426 110.615 38.457 110.771 38.3008C110.947 38.1055 111.074 37.9297 111.152 37.7734C111.191 37.5586 111.25 37.1387 111.328 36.5137C111.387 35.9863 111.465 35.2344 111.562 34.2578C111.66 33.2812 111.777 31.9531 111.914 30.2734L112.09 28.1934C112.188 26.9043 112.227 25.8496 112.207 25.0293C112.207 24.209 112.188 23.5645 112.148 23.0957C112.09 22.5488 112.012 22.1484 111.914 21.8945C111.836 21.6797 111.689 21.4258 111.475 21.1328C111.279 20.8984 111.006 20.6152 110.654 20.2832C110.322 19.9316 109.873 19.541 109.307 19.1113ZM115.488 29.8926C115.527 31.6309 115.615 32.9688 115.752 33.9062C115.908 34.8242 116.074 35.5078 116.25 35.957C116.465 36.4648 116.699 36.7676 116.953 36.8652C117.324 36.8652 117.744 36.709 118.213 36.3965C118.682 36.0645 119.141 35.5664 119.59 34.9023C120.059 34.2383 120.479 33.4082 120.85 32.4121C121.24 31.416 121.523 30.2539 121.699 28.9258C121.875 27.5977 121.826 26.4258 121.553 25.4102C121.279 24.3945 120.918 23.5449 120.469 22.8613C120.02 22.1582 119.561 21.6309 119.092 21.2793C118.623 20.9082 118.271 20.7227 118.037 20.7227C117.764 20.7227 117.52 20.8008 117.305 20.957C117.09 21.0938 116.787 21.416 116.396 21.9238C116.201 22.1973 116.025 22.5879 115.869 23.0957C115.732 23.5449 115.615 24.1406 115.518 24.8828C115.42 25.625 115.391 26.582 115.43 27.7539L115.488 29.8926ZM137.52 18.3496C138.203 18.3496 138.818 18.4668 139.365 18.7012C139.932 18.916 140.449 19.1602 140.918 19.4336C141.406 19.707 141.865 19.9609 142.295 20.1953C142.725 20.4102 143.164 20.5176 143.613 20.5176C143.965 20.498 144.365 20.4492 144.814 20.3711C145.205 20.293 145.654 20.1758 146.162 20.0195C146.689 19.8438 147.275 19.5898 147.92 19.2578C147.275 19.8828 146.748 20.4102 146.338 20.8398C145.947 21.25 145.645 21.5918 145.43 21.8652C145.176 22.1777 144.99 22.4219 144.873 22.5977C144.756 22.8125 144.58 23.1348 144.346 23.5645C144.131 23.9551 143.838 24.4824 143.467 25.1465C143.096 25.791 142.627 26.6406 142.061 27.6953C142.061 26.3477 141.924 25.3027 141.65 24.5605C141.396 23.8184 141.113 23.252 140.801 22.8613C140.43 22.4121 140.01 22.1289 139.541 22.0117C139.111 21.9531 138.682 22.0312 138.252 22.2461C137.822 22.4414 137.393 22.7344 136.963 23.125C136.553 23.5156 136.152 23.9844 135.762 24.5312C135.391 25.0586 135.049 25.6152 134.736 26.2012C134.443 26.7871 134.199 27.3828 134.004 27.9883C133.809 28.5742 133.682 29.1211 133.623 29.6289C133.564 30.0781 133.555 30.6055 133.594 31.2109C133.633 31.7969 133.721 32.4023 133.857 33.0273C133.994 33.6328 134.17 34.2285 134.385 34.8145C134.6 35.4004 134.863 35.9277 135.176 36.3965C135.508 36.8457 135.879 37.2168 136.289 37.5098C136.699 37.7832 137.168 37.9102 137.695 37.8906C138.281 37.8516 138.857 37.6758 139.424 37.3633C139.912 37.1094 140.41 36.7188 140.918 36.1914C141.426 35.6445 141.865 34.873 142.236 33.877L146.572 34.668C145.322 36.1914 144.102 37.334 142.91 38.0957C141.738 38.8574 140.684 39.3945 139.746 39.707C138.652 40.0586 137.617 40.2246 136.641 40.2051C135.41 40.0684 134.258 39.6973 133.184 39.0918C132.109 38.4863 131.182 37.7539 130.4 36.8945C129.639 36.0156 129.043 35.0586 128.613 34.0234C128.184 32.9883 127.998 31.9727 128.057 30.9766C128.096 30.3125 128.232 29.541 128.467 28.6621C128.701 27.7637 129.014 26.8457 129.404 25.9082C129.814 24.9707 130.303 24.0527 130.869 23.1543C131.436 22.2559 132.061 21.4551 132.744 20.752C133.428 20.0293 134.17 19.4531 134.971 19.0234C135.791 18.5742 136.641 18.3496 137.52 18.3496ZM156.504 17.9102C157.559 17.9492 158.623 18.1445 159.697 18.4961C160.791 18.8281 161.797 19.375 162.715 20.1367C163.633 20.8789 164.414 21.8457 165.059 23.0371C165.703 24.209 166.104 25.6445 166.26 27.3438C166.396 28.7305 166.221 30.1074 165.732 31.4746C165.264 32.8223 164.609 34.0625 163.77 35.1953C162.93 36.3281 161.963 37.2949 160.869 38.0957C159.775 38.877 158.682 39.3945 157.588 39.6484C156.924 39.8047 156.191 39.8242 155.391 39.707C154.609 39.5703 153.809 39.3262 152.988 38.9746C152.188 38.6035 151.396 38.1348 150.615 37.5684C149.854 37.002 149.16 36.3574 148.535 35.6348C147.91 34.8926 147.383 34.0918 146.953 33.2324C146.543 32.373 146.289 31.4746 146.191 30.5371C146.094 29.7559 146.084 28.8965 146.162 27.959C146.26 27.002 146.445 26.0547 146.719 25.1172C147.012 24.1602 147.412 23.2422 147.92 22.3633C148.447 21.4648 149.111 20.6836 149.912 20.0195C150.713 19.3359 151.65 18.8086 152.725 18.4375C153.818 18.0469 155.078 17.8711 156.504 17.9102ZM151.26 29.7754C150.986 31.8652 151.182 33.5449 151.846 34.8145C152.529 36.084 153.555 36.8555 154.922 37.1289C155.586 37.2656 156.221 37.1289 156.826 36.7188C157.451 36.2891 158.018 35.6738 158.525 34.873C159.033 34.0723 159.473 33.1348 159.844 32.0605C160.215 30.9863 160.488 29.8633 160.664 28.6914C160.84 27.5195 160.85 26.4648 160.693 25.5273C160.557 24.5703 160.312 23.7598 159.961 23.0957C159.609 22.4121 159.18 21.8848 158.672 21.5137C158.184 21.1426 157.676 20.9375 157.148 20.8984C156.23 20.8398 155.43 21.084 154.746 21.6309C154.062 22.1582 153.486 22.8516 153.018 23.7109C152.549 24.5703 152.168 25.5371 151.875 26.6113C151.602 27.6855 151.396 28.7402 151.26 29.7754ZM166.611 19.8145C167.275 19.8926 167.832 19.9512 168.281 19.9902C168.75 20.0098 169.131 20.0391 169.424 20.0781C169.775 20.1172 170.049 20.1367 170.244 20.1367C170.459 20.1562 170.781 20.1465 171.211 20.1074C171.582 20.0684 172.08 20.0195 172.705 19.9609C173.35 19.9023 174.17 19.8145 175.166 19.6973C174.717 20.0879 174.355 20.4688 174.082 20.8398C173.828 21.1914 173.633 21.5039 173.496 21.7773C173.32 22.1094 173.213 22.4219 173.174 22.7148C173.096 23.1836 173.027 23.8281 172.969 24.6484C172.93 25.4492 172.891 26.3281 172.852 27.2852C172.812 28.2422 172.793 29.2285 172.793 30.2441C172.793 31.2598 172.803 32.2266 172.822 33.1445C172.861 34.043 172.92 34.8438 172.998 35.5469C173.096 36.25 173.213 36.7578 173.35 37.0703C173.545 37.4219 173.75 37.7734 173.965 38.125C174.16 38.418 174.395 38.7207 174.668 39.0332C174.941 39.3457 175.254 39.5996 175.605 39.7949C174.453 39.7363 173.535 39.707 172.852 39.707H171.797C171.484 39.707 171.084 39.7266 170.596 39.7656C170.186 39.8047 169.668 39.8438 169.043 39.8828C168.418 39.9219 167.666 39.9805 166.787 40.0586C167.236 39.5703 167.588 39.1016 167.842 38.6523C168.096 38.2031 168.301 37.8125 168.457 37.4805C168.633 37.0898 168.75 36.7188 168.809 36.3672C168.887 35.8594 168.945 35.2344 168.984 34.4922C169.043 33.7305 169.082 32.9199 169.102 32.0605C169.121 31.1816 169.121 30.293 169.102 29.3945C169.102 28.4766 169.082 27.5977 169.043 26.7578C169.004 25.918 168.945 25.1562 168.867 24.4727C168.809 23.7891 168.73 23.2422 168.633 22.832C168.574 22.5781 168.457 22.2949 168.281 21.9824C168.125 21.709 167.91 21.3965 167.637 21.0449C167.383 20.6738 167.041 20.2637 166.611 19.8145ZM175.605 19.2285C176.484 19.3848 177.207 19.4922 177.773 19.5508C178.34 19.6094 178.799 19.6582 179.15 19.6973C179.561 19.7363 179.883 19.7461 180.117 19.7266H180.996C181.309 19.7266 181.699 19.7266 182.168 19.7266C182.656 19.707 183.262 19.6973 183.984 19.6973C184.395 20.6543 184.766 21.5332 185.098 22.334C185.449 23.1348 185.742 23.8184 185.977 24.3848C186.25 25.0684 186.504 25.6836 186.738 26.2305C187.012 26.9141 187.305 27.666 187.617 28.4863C187.93 29.3066 188.213 30.0781 188.467 30.8008C188.74 31.5234 188.965 32.1191 189.141 32.5879C189.316 33.0566 189.404 33.2715 189.404 33.2324C189.404 33.2129 189.414 33.0176 189.434 32.6465C189.453 32.2559 189.473 31.7773 189.492 31.2109C189.512 30.625 189.531 29.9902 189.551 29.3066C189.59 28.6035 189.609 27.9297 189.609 27.2852C189.629 26.6211 189.639 26.0156 189.639 25.4688C189.639 24.9219 189.619 24.5117 189.58 24.2383C189.521 23.9062 189.404 23.5254 189.229 23.0957C189.072 22.7246 188.857 22.2852 188.584 21.7773C188.311 21.25 187.93 20.6543 187.441 19.9902C188.242 20.0098 188.896 20.0195 189.404 20.0195C189.912 20.0195 190.322 20.0195 190.635 20.0195C190.986 20.0195 191.26 20.0098 191.455 19.9902C191.709 19.9902 192.021 19.9707 192.393 19.9316C192.725 19.8926 193.135 19.8633 193.623 19.8438C194.131 19.8047 194.756 19.7559 195.498 19.6973C195.068 20.0879 194.727 20.459 194.473 20.8105C194.219 21.1621 194.014 21.4746 193.857 21.748C193.682 22.0605 193.564 22.3535 193.506 22.627C193.428 22.9785 193.359 23.5547 193.301 24.3555C193.262 25.1367 193.213 26.0156 193.154 26.9922C193.115 27.9688 193.076 28.9844 193.037 30.0391C192.998 31.0938 192.959 32.0605 192.92 32.9395C192.92 33.6035 192.9 34.3164 192.861 35.0781C192.822 35.7227 192.783 36.4551 192.744 37.2754C192.705 38.0762 192.656 38.8867 192.598 39.707L189.99 39.7656C189.229 38.418 188.584 37.2656 188.057 36.3086C187.549 35.332 187.129 34.5312 186.797 33.9062C186.426 33.1836 186.113 32.5781 185.859 32.0898C185.645 31.6211 185.361 31.084 185.01 30.4785C184.717 29.9707 184.346 29.3457 183.896 28.6035C183.467 27.8613 182.949 27.0117 182.344 26.0547C182.285 27.4023 182.256 28.5547 182.256 29.5117C182.275 30.4492 182.305 31.2305 182.344 31.8555C182.402 32.5781 182.471 33.1836 182.549 33.6719C182.646 34.1406 182.783 34.668 182.959 35.2539C183.115 35.7617 183.301 36.3574 183.516 37.041C183.75 37.7246 184.033 38.4961 184.365 39.3555C183.213 39.2969 182.354 39.2676 181.787 39.2676H180.908C180.635 39.2676 180.264 39.2969 179.795 39.3555C179.404 39.3945 178.867 39.4531 178.184 39.5312C177.52 39.6094 176.689 39.7168 175.693 39.8535C176.162 39.2871 176.533 38.7695 176.807 38.3008C177.1 37.8125 177.324 37.4023 177.48 37.0703C177.676 36.6797 177.812 36.3379 177.891 36.0449C177.949 35.7324 177.988 35.1953 178.008 34.4336C178.027 33.6523 178.027 32.7734 178.008 31.7969C178.008 30.8008 177.988 29.7559 177.949 28.6621C177.93 27.5684 177.9 26.5527 177.861 25.6152C177.822 24.6777 177.773 23.877 177.715 23.2129C177.676 22.5488 177.646 22.1387 177.627 21.9824C177.568 21.7285 177.451 21.4551 177.275 21.1621C177.119 20.9082 176.914 20.625 176.66 20.3125C176.406 19.9805 176.055 19.6191 175.605 19.2285ZM201.211 19.9316C201.641 19.6973 202.129 19.4922 202.676 19.3164C203.223 19.1211 203.789 18.9746 204.375 18.877C204.961 18.7598 205.547 18.6914 206.133 18.6719C206.738 18.6523 207.305 18.7012 207.832 18.8184C209.375 19.1504 210.674 19.7852 211.729 20.7227C212.783 21.6602 213.594 22.7539 214.16 24.0039C214.746 25.2539 215.088 26.6016 215.186 28.0469C215.303 29.4727 215.186 30.8496 214.834 32.1777C214.717 32.5684 214.521 33.0176 214.248 33.5254C214.014 33.9551 213.691 34.4824 213.281 35.1074C212.871 35.7129 212.334 36.3867 211.67 37.1289C211.826 37.4805 211.982 37.7637 212.139 37.9785C212.314 38.1738 212.48 38.3203 212.637 38.418C212.812 38.5352 212.979 38.6133 213.135 38.6523C213.291 38.6719 213.477 38.6816 213.691 38.6816C213.867 38.6816 214.072 38.6719 214.307 38.6523C214.561 38.6133 214.834 38.5547 215.127 38.4766L210.557 42.2852C210.498 41.9727 210.43 41.6992 210.352 41.4648C210.293 41.25 210.244 41.0645 210.205 40.9082L210.029 40.4688C209.951 40.3711 209.873 40.2441 209.795 40.0879C209.717 39.9707 209.629 39.8242 209.531 39.6484C209.434 39.4727 209.307 39.2773 209.15 39.0625C207.92 39.5312 206.797 39.834 205.781 39.9707C204.785 40.1074 203.877 40.1172 203.057 40C202.236 39.9023 201.504 39.7168 200.859 39.4434C200.215 39.1504 199.648 38.8184 199.16 38.4473C198.027 37.5684 197.139 36.416 196.494 34.9902C195.771 33.0371 195.439 31.25 195.498 29.6289C195.576 27.9883 195.889 26.5332 196.436 25.2637C196.982 23.9746 197.686 22.8809 198.545 21.9824C199.424 21.084 200.312 20.4004 201.211 19.9316ZM205.547 34.8145C205.254 34.7363 204.98 34.707 204.727 34.7266C204.512 34.7461 204.297 34.8145 204.082 34.9316C203.867 35.0488 203.711 35.2637 203.613 35.5762C203.867 35.8301 204.102 36.0449 204.316 36.2207C204.551 36.377 204.746 36.5039 204.902 36.6016C205.098 36.7188 205.273 36.8164 205.43 36.8945C205.703 36.9922 205.977 37.0703 206.25 37.1289C206.484 37.168 206.738 37.1875 207.012 37.1875C207.305 37.168 207.578 37.0898 207.832 36.9531C207.637 36.543 207.402 36.2012 207.129 35.9277C206.875 35.6348 206.631 35.4102 206.396 35.2539C206.123 35.0586 205.84 34.9121 205.547 34.8145ZM202.441 33.7598C202.773 33.252 203.135 32.8906 203.525 32.6758C203.916 32.4609 204.287 32.3047 204.639 32.207C205.049 32.1289 205.469 32.0996 205.898 32.1191C206.309 32.2168 206.719 32.3828 207.129 32.6172C207.48 32.832 207.852 33.1348 208.242 33.5254C208.633 33.8965 208.994 34.4043 209.326 35.0488C209.639 34.5801 209.873 34.0918 210.029 33.584C210.186 33.0762 210.303 32.6172 210.381 32.207C210.459 31.7188 210.498 31.2402 210.498 30.7715C210.459 30.0488 210.381 29.2871 210.264 28.4863C210.146 27.6855 209.971 26.8945 209.736 26.1133C209.521 25.332 209.248 24.5898 208.916 23.8867C208.584 23.1836 208.184 22.5781 207.715 22.0703C207.266 21.5625 206.738 21.1816 206.133 20.9277C205.547 20.6738 204.883 20.6055 204.141 20.7227C203.32 20.8398 202.646 21.1719 202.119 21.7188C201.611 22.2656 201.211 22.9102 200.918 23.6523C200.645 24.375 200.469 25.1562 200.391 25.9961C200.332 26.8164 200.342 27.5586 200.42 28.2227C200.479 28.7695 200.596 29.3457 200.771 29.9512C200.928 30.459 201.133 31.0449 201.387 31.709C201.641 32.373 201.992 33.0566 202.441 33.7598ZM215.859 19.4043C216.445 19.5215 216.943 19.6094 217.354 19.668C217.764 19.7266 218.105 19.7754 218.379 19.8145C218.691 19.8535 218.955 19.873 219.17 19.873C219.385 19.873 219.678 19.8633 220.049 19.8438C220.381 19.8242 220.801 19.8145 221.309 19.8145C221.816 19.7949 222.461 19.7656 223.242 19.7266C222.793 20.0391 222.432 20.3027 222.158 20.5176C221.885 20.7324 221.68 20.918 221.543 21.0742C221.367 21.25 221.26 21.3965 221.221 21.5137C221.182 21.5918 221.143 21.8848 221.104 22.3926C221.064 22.8809 221.025 23.5059 220.986 24.2676C220.967 25.0098 220.967 25.8496 220.986 26.7871C221.006 27.7051 221.055 28.6426 221.133 29.5996C221.23 30.5566 221.367 31.4844 221.543 32.3828C221.719 33.2617 221.953 34.0332 222.246 34.6973C222.559 35.3613 222.93 35.8789 223.359 36.25C223.809 36.6211 224.346 36.7578 224.971 36.6602C225.791 36.543 226.455 36.1426 226.963 35.459C227.471 34.7754 227.852 33.9453 228.105 32.9688C228.379 31.9922 228.545 30.9473 228.604 29.834C228.682 28.7012 228.691 27.6465 228.633 26.6699C228.594 25.6738 228.516 24.8145 228.398 24.0918C228.281 23.3691 228.174 22.9199 228.076 22.7441C227.959 22.5488 227.803 22.3242 227.607 22.0703C227.451 21.8555 227.246 21.6113 226.992 21.3379C226.738 21.0449 226.445 20.7324 226.113 20.4004C226.719 20.4199 227.266 20.4395 227.754 20.459C228.242 20.459 228.652 20.4688 228.984 20.4883C229.375 20.5078 229.727 20.5273 230.039 20.5469C230.352 20.5664 230.742 20.5957 231.211 20.6348C231.602 20.6738 232.1 20.7129 232.705 20.752C233.33 20.791 234.072 20.8496 234.932 20.9277C234.6 21.0059 234.326 21.1133 234.111 21.25C233.916 21.3867 233.76 21.5332 233.643 21.6895C233.506 21.8652 233.408 22.041 233.35 22.2168C233.291 22.373 233.242 22.8418 233.203 23.623C233.184 24.3848 233.145 25.3125 233.086 26.4062C233.047 27.4805 232.979 28.6523 232.881 29.9219C232.783 31.1719 232.627 32.3633 232.412 33.4961C232.217 34.6289 231.953 35.6348 231.621 36.5137C231.309 37.3926 230.898 37.998 230.391 38.3301C229.648 38.8184 228.867 39.1699 228.047 39.3848C227.227 39.5801 226.396 39.6875 225.557 39.707C224.717 39.707 223.887 39.6387 223.066 39.502C222.266 39.3457 221.494 39.1602 220.752 38.9453C219.99 38.7109 219.355 38.1836 218.848 37.3633C218.359 36.543 217.969 35.5762 217.676 34.4629C217.402 33.3301 217.197 32.1191 217.061 30.8301C216.943 29.5215 216.865 28.2617 216.826 27.0508C216.807 25.8398 216.807 24.7461 216.826 23.7695C216.865 22.7734 216.895 22.0215 216.914 21.5137C216.914 21.2598 216.875 21.0156 216.797 20.7812C216.738 20.5664 216.631 20.3418 216.475 20.1074C216.338 19.8535 216.133 19.6191 215.859 19.4043ZM233.262 19.9902C234.629 20.0293 235.762 20.0586 236.66 20.0781C237.578 20.0781 238.32 20.0781 238.887 20.0781H240.439H249.17C249.209 20.4688 249.238 20.8496 249.258 21.2207C249.297 21.5723 249.316 21.8848 249.316 22.1582C249.316 22.4902 249.307 22.793 249.287 23.0664C249.268 23.3398 249.238 23.6328 249.199 23.9453C249.16 24.2188 249.121 24.5117 249.082 24.8242C249.043 25.1367 248.975 25.459 248.877 25.791C248.604 24.7363 248.232 23.9355 247.764 23.3887C247.314 22.8418 246.855 22.4414 246.387 22.1875C245.84 21.8945 245.264 21.7383 244.658 21.7188C243.857 21.7578 243.232 21.8262 242.783 21.9238C242.334 22.0215 241.982 22.1582 241.729 22.334C241.475 22.5098 241.279 22.7148 241.143 22.9492C241.025 23.1641 240.898 23.4082 240.762 23.6816C240.645 23.916 240.537 24.2773 240.439 24.7656C240.342 25.1758 240.244 25.7324 240.146 26.4355C240.068 27.1387 239.98 28.0469 239.883 29.1602C240.41 29.0039 240.83 28.8574 241.143 28.7207C241.475 28.584 241.738 28.4668 241.934 28.3691C242.148 28.252 242.305 28.1445 242.402 28.0469C242.48 27.9297 242.598 27.7148 242.754 27.4023C242.871 27.1289 243.027 26.7578 243.223 26.2891C243.438 25.8203 243.691 25.1758 243.984 24.3555C244.023 25.2539 244.043 26.0059 244.043 26.6113C244.043 27.1973 244.053 27.6758 244.072 28.0469C244.072 28.4766 244.082 28.8184 244.102 29.0723V30.1855C244.102 30.5957 244.102 31.1523 244.102 31.8555C244.121 32.5391 244.15 33.4082 244.189 34.4629C243.955 33.7402 243.74 33.1738 243.545 32.7637C243.369 32.334 243.213 32.0117 243.076 31.7969C242.92 31.543 242.783 31.3672 242.666 31.2695C242.529 31.2305 242.344 31.1914 242.109 31.1523C241.895 31.1328 241.621 31.123 241.289 31.123C240.977 31.123 240.576 31.1719 240.088 31.2695C240.029 32.3438 240.02 33.2129 240.059 33.877C240.117 34.5215 240.195 35.0195 240.293 35.3711C240.391 35.7812 240.508 36.0742 240.645 36.25C240.82 36.4258 241.172 36.5723 241.699 36.6895C242.227 36.7871 242.822 36.8262 243.486 36.8066C244.17 36.7676 244.863 36.6504 245.566 36.4551C246.27 36.2598 246.895 35.9375 247.441 35.4883C247.852 35.1172 248.291 34.6484 248.76 34.082C249.15 33.5938 249.58 32.9785 250.049 32.2363C250.537 31.4941 251.016 30.5957 251.484 29.541C251.406 30.4199 251.348 31.1523 251.309 31.7383C251.289 32.3047 251.26 32.7637 251.221 33.1152C251.182 33.5254 251.152 33.8379 251.133 34.0527C251.133 34.2871 251.104 34.6191 251.045 35.0488C251.006 35.4199 250.938 35.9277 250.84 36.5723C250.762 37.1973 250.654 37.998 250.518 38.9746C249.6 38.9941 248.73 39.0137 247.91 39.0332C247.09 39.0332 246.367 39.043 245.742 39.0625C245 39.082 244.316 39.1016 243.691 39.1211C243.047 39.1211 242.334 39.1504 241.553 39.209C240.869 39.248 240.059 39.3066 239.121 39.3848C238.203 39.4629 237.188 39.5703 236.074 39.707C236.172 38.3789 236.24 37.1289 236.279 35.957C236.338 34.7656 236.377 33.7207 236.396 32.8223C236.416 31.7676 236.416 30.791 236.396 29.8926C236.494 27.6465 236.455 25.8301 236.279 24.4434C236.104 23.0566 235.898 22.168 235.664 21.7773C235.547 21.6406 235.381 21.4746 235.166 21.2793C234.99 21.123 234.746 20.9375 234.434 20.7227C234.121 20.5078 233.73 20.2637 233.262 19.9902ZM271.377 18.5547C271.104 19.1797 270.859 19.7266 270.645 20.1953C270.43 20.6641 270.244 21.0645 270.088 21.3965C269.912 21.7676 269.766 22.0996 269.648 22.3926C269.551 22.6074 269.424 22.9004 269.268 23.2715C269.111 23.6035 268.916 24.043 268.682 24.5898C268.467 25.1172 268.184 25.8008 267.832 26.6406C267.656 25.918 267.441 25.2832 267.188 24.7363C266.934 24.1895 266.66 23.7109 266.367 23.3008C266.074 22.8906 265.762 22.5586 265.43 22.3047C265.117 22.0312 264.805 21.8066 264.492 21.6309C263.77 21.2402 263.008 21.0254 262.207 20.9863C261.152 21.0449 260.322 21.2207 259.717 21.5137C259.131 21.7871 258.701 22.1094 258.428 22.4805C258.154 22.832 258.008 23.2031 257.988 23.5938C257.969 23.9648 258.018 24.2773 258.135 24.5312C258.232 24.7656 258.574 25.0391 259.16 25.3516C259.766 25.6641 260.488 26.0254 261.328 26.4355C262.188 26.8262 263.105 27.2754 264.082 27.7832C265.059 28.2715 265.957 28.8184 266.777 29.4238C267.617 30.0098 268.32 30.6543 268.887 31.3574C269.473 32.041 269.795 32.7734 269.854 33.5547C269.912 34.5508 269.902 35.4492 269.824 36.25C269.746 37.0508 269.473 37.7344 269.004 38.3008C268.535 38.8672 267.803 39.3164 266.807 39.6484C265.83 39.9805 264.473 40.1855 262.734 40.2637C260.938 40.3418 259.463 40.2441 258.311 39.9707C257.158 39.6973 256.221 39.3262 255.498 38.8574C254.795 38.3887 254.268 37.8711 253.916 37.3047C253.584 36.7383 253.34 36.2012 253.184 35.6934C253.027 35.166 252.92 34.7168 252.861 34.3457C252.803 33.9551 252.705 33.7207 252.568 33.6426C252.412 33.5449 252.256 33.457 252.1 33.3789C251.963 33.3008 251.816 33.2324 251.66 33.1738C251.504 33.0957 251.348 33.0273 251.191 32.9688L259.717 31.5918C259.229 31.9824 258.848 32.3438 258.574 32.6758C258.32 33.0078 258.125 33.3008 257.988 33.5547C257.832 33.8477 257.725 34.1211 257.666 34.375C257.627 34.6484 257.715 34.9902 257.93 35.4004C258.145 35.8105 258.438 36.2109 258.809 36.6016C259.199 36.9727 259.648 37.2852 260.156 37.5391C260.664 37.793 261.191 37.9004 261.738 37.8613C262.422 37.8027 262.979 37.6367 263.408 37.3633C263.838 37.0703 264.16 36.709 264.375 36.2793C264.609 35.8496 264.746 35.3809 264.785 34.873C264.824 34.3652 264.775 33.8672 264.639 33.3789C264.521 32.8711 264.326 32.4023 264.053 31.9727C263.779 31.5234 263.457 31.1523 263.086 30.8594C262.754 30.625 262.236 30.4004 261.533 30.1855C260.85 29.9707 260.078 29.7363 259.219 29.4824C258.379 29.2285 257.51 28.9355 256.611 28.6035C255.732 28.2715 254.932 27.8613 254.209 27.373C253.506 26.8848 252.939 26.3086 252.51 25.6445C252.1 24.9805 251.943 24.1797 252.041 23.2422C252.119 22.4414 252.373 21.7773 252.803 21.25C253.252 20.7031 253.809 20.2734 254.473 19.9609C255.156 19.6289 255.908 19.3848 256.729 19.2285C257.568 19.0723 258.418 18.9844 259.277 18.9648C260.156 18.9258 261.016 18.9355 261.855 18.9941C262.715 19.0527 263.486 19.1211 264.17 19.1992C264.854 19.2773 265.43 19.3555 265.898 19.4336C266.387 19.4922 266.689 19.5312 266.807 19.5508C267.314 19.5898 267.822 19.5801 268.33 19.5215C268.779 19.4824 269.268 19.3945 269.795 19.2578C270.342 19.1016 270.869 18.8672 271.377 18.5547ZM270.645 18.6133C271.953 18.7695 273.086 18.8867 274.043 18.9648C275 19.0234 275.791 19.0723 276.416 19.1113C277.139 19.1504 277.744 19.1602 278.232 19.1406C278.74 19.1211 279.434 19.0723 280.312 18.9941C281.055 18.9355 282.031 18.8574 283.242 18.7598C284.453 18.6426 285.967 18.4863 287.783 18.291C287.803 18.7402 287.812 19.1797 287.812 19.6094C287.832 20.0195 287.852 20.3809 287.871 20.6934C287.891 21.0645 287.9 21.4062 287.9 21.7188C287.9 22.0508 287.881 22.4707 287.842 22.9785C287.803 23.4082 287.734 23.9551 287.637 24.6191C287.559 25.2637 287.432 26.0352 287.256 26.9336C286.982 25.8789 286.719 25.0293 286.465 24.3848C286.211 23.7207 285.977 23.1934 285.762 22.8027C285.527 22.3535 285.293 22.0117 285.059 21.7773C284.805 21.6016 284.502 21.4551 284.15 21.3379C283.838 21.2402 283.438 21.1621 282.949 21.1035C282.48 21.0449 281.924 21.0547 281.279 21.1328C281.182 23.7109 281.113 25.8008 281.074 27.4023C281.035 29.0039 281.006 30.2539 280.986 31.1523C280.967 32.2266 280.957 32.998 280.957 33.4668C280.977 34.1309 281.084 34.7852 281.279 35.4297C281.436 35.9766 281.689 36.543 282.041 37.1289C282.393 37.7148 282.9 38.2324 283.564 38.6816H279.99C279.658 38.6816 279.248 38.7012 278.76 38.7402C278.35 38.7793 277.822 38.8184 277.178 38.8574C276.553 38.8965 275.82 38.9648 274.98 39.0625C275.273 38.5547 275.508 38.0957 275.684 37.6855C275.859 37.2754 275.996 36.9238 276.094 36.6309C276.211 36.2793 276.299 35.9668 276.357 35.6934C276.377 35.3027 276.426 34.5117 276.504 33.3203C276.523 32.832 276.543 32.2266 276.562 31.5039C276.602 30.7812 276.641 29.9219 276.68 28.9258C276.738 27.9297 276.787 26.7871 276.826 25.498C276.885 24.1895 276.943 22.7148 277.002 21.0742C276.65 20.9766 276.318 20.9863 276.006 21.1035C275.693 21.2012 275.42 21.3281 275.186 21.4844C274.912 21.6797 274.648 21.9141 274.395 22.1875C274.141 22.5195 273.857 22.9492 273.545 23.4766C273.271 23.9258 272.959 24.5215 272.607 25.2637C272.256 25.9863 271.855 26.8848 271.406 27.959C271.309 26.8262 271.24 25.8984 271.201 25.1758C271.162 24.4336 271.133 23.8574 271.113 23.4473C271.094 22.959 271.084 22.5977 271.084 22.3633C271.084 22.1484 271.064 21.8652 271.025 21.5137C270.986 21.2207 270.938 20.8398 270.879 20.3711C270.82 19.8828 270.742 19.2969 270.645 18.6133Z" fill="white"/>
</svg>
